<svg width="549" height="549" viewBox="0 0 549 549" fill="none" xmlns="http://www.w3.org/2000/svg">
<g clip-path="url(#clip0_4_57)">
<path d="M118.774 383.722H429.406C441.968 383.722 452.718 379.252 461.663 370.3C470.612 361.351 475.085 350.602 475.085 338.042V137.046C475.085 124.483 470.612 113.733 461.663 104.785C452.718 95.838 441.969 91.3669 429.406 91.3669H118.774C106.212 91.3669 95.456 95.838 86.51 104.785C77.563 113.732 73.092 124.483 73.092 137.046V338.043C73.092 350.603 77.563 361.355 86.51 370.301C95.456 379.246 106.212 383.722 118.774 383.722ZM109.634 137.046C109.634 134.572 110.539 132.427 112.347 130.623C114.158 128.817 116.3 127.911 118.774 127.911H429.399C431.877 127.911 434.018 128.815 435.826 130.623C437.629 132.432 438.533 134.572 438.533 137.046V338.043C438.533 340.514 437.629 342.66 435.826 344.463C434.018 346.271 431.877 347.177 429.399 347.177H118.771C116.296 347.177 114.154 346.274 112.344 344.463C110.539 342.653 109.634 340.514 109.634 338.043V137.046Z" fill="white"/>
<path d="M502.496 401.997H45.681H0V429.401C0 437.019 4.471 443.487 13.417 448.815C22.368 454.143 33.119 456.809 45.681 456.809H502.496C515.056 456.809 525.808 454.143 534.754 448.815C543.7 443.487 548.176 437.019 548.176 429.401V401.997H502.496ZM296.928 429.401H251.247C248.205 429.401 246.682 427.875 246.682 424.833C246.682 421.787 248.205 420.258 251.247 420.258H296.928C299.973 420.258 301.499 421.787 301.499 424.833C301.499 427.875 299.973 429.401 296.928 429.401Z" fill="white"/>
</g>
<defs>
<clipPath id="clip0_4_57">
<rect width="548.176" height="548.175" fill="white"/>
</clipPath>
</defs>
</svg>
