<svg width="512" height="512" viewBox="0 0 512 512" fill="none" xmlns="http://www.w3.org/2000/svg">
<path fill-rule="evenodd" clip-rule="evenodd" d="M256 0.5C397.11 0.5 511.5 114.89 511.5 256C511.5 397.11 397.11 511.5 256 511.5C114.89 511.5 0.5 397.11 0.5 256C0.5 114.89 114.89 0.5 256 0.5ZM180.95 159.57C234.21 159.57 277.38 202.75 277.38 256C277.38 309.25 234.21 352.43 180.95 352.43C127.7 352.43 84.53 309.25 84.53 256C84.53 202.75 127.7 159.57 180.95 159.57ZM335.24 167.19C362.19 167.19 384.03 206.95 384.03 256C384.03 305.05 362.19 344.81 335.24 344.81C308.29 344.81 286.45 305.05 286.45 256C286.45 206.95 308.29 167.19 335.24 167.19ZM410.48 174.8C419.86 174.8 427.47 211.15 427.47 256C427.47 300.85 419.86 337.2 410.48 337.2C401.09 337.2 393.48 300.85 393.48 256C393.48 211.15 401.09 174.8 410.48 174.8Z" fill="#2E2F33"/>
</svg>
