<svg width="512" height="440" viewBox="0 0 512 440" fill="none" xmlns="http://www.w3.org/2000/svg">
<path d="M18.842 92.48C6.28 105.043 0 120.08 0 137.588V375.125C0 392.64 6.28 407.677 18.842 420.236C31.405 432.801 46.442 439.078 63.953 439.078H82.224V73.634H63.953C46.438 73.634 31.402 79.917 18.842 92.48Z" fill="white"/>
<path d="M365.446 27.955C365.446 20.341 362.783 13.871 357.452 8.54097C352.127 3.21097 345.652 0.547974 338.041 0.547974H173.589C165.977 0.547974 159.506 3.21097 154.175 8.54097C148.845 13.868 146.181 20.34 146.181 27.955V73.634H109.636V439.078H401.995V73.634H365.446V27.955ZM328.904 73.634H182.725V37.091H328.904V73.634Z" fill="white"/>
<path d="M492.785 92.48C480.222 79.918 465.184 73.634 447.674 73.634H429.4V439.078H447.674C465.185 439.078 480.222 432.802 492.785 420.236C505.344 407.676 511.627 392.639 511.627 375.125V137.588C511.626 120.08 505.343 105.043 492.785 92.48Z" fill="white"/>
</svg>
